<svg width="22" height="22" viewBox="0 0 22 22" fill="none" xmlns="http://www.w3.org/2000/svg">
<path d="M19.0787 18.425H2.85229C1.96213 18.425 1.25 17.7129 1.25 16.8227V5.3523C1.25 4.46213 1.96213 3.75 2.85229 3.75H19.0787C19.9689 3.75 20.681 4.46213 20.681 5.3523V16.8227C20.681 17.7129 19.9435 18.425 19.0787 18.425ZM2.82686 4.76733C2.49623 4.76733 2.2419 5.02166 2.2419 5.3523V16.8227C2.2419 17.1533 2.49623 17.4077 2.82686 17.4077H19.0533C19.3839 17.4077 19.6382 17.1533 19.6382 16.8227V5.3523C19.6382 5.02166 19.3839 4.76733 19.0533 4.76733H2.82686Z" fill="#EB6329"/>
<path d="M10.9354 13.8678C10.8087 13.8678 10.6821 13.8184 10.5807 13.7195L1.86491 4.99287C1.66222 4.7951 1.66222 4.47372 1.86491 4.30067C2.0676 4.1029 2.39698 4.1029 2.57433 4.30067L10.9354 12.6812L19.6006 4.59733C19.8033 4.39956 20.1326 4.42428 20.31 4.62205C20.5127 4.81982 20.4873 5.1412 20.2847 5.31425L11.2648 13.7442C11.1888 13.8184 11.0621 13.8678 10.9354 13.8678Z" fill="#EB6329"/>
<path d="M2.11552 18.1961C1.98835 18.1961 1.86119 18.1452 1.75945 18.0435C1.55599 17.84 1.55599 17.5348 1.73402 17.3314L7.9906 10.8459C8.19407 10.6424 8.49927 10.6424 8.70273 10.8204C8.9062 11.0239 8.9062 11.3291 8.72817 11.5326L2.47158 18.0181C2.39528 18.1452 2.26812 18.1961 2.11552 18.1961Z" fill="#EB6329"/>
<path d="M19.7648 18.196C19.6377 18.196 19.5105 18.1451 19.4088 18.0434L13.1522 11.5579C12.9487 11.3545 12.9742 11.0238 13.1776 10.8458C13.3811 10.6423 13.7117 10.6678 13.8898 10.8712L20.1463 17.3567C20.3498 17.5602 20.3244 17.8908 20.1209 18.0688C20.0192 18.1451 19.892 18.196 19.7648 18.196Z" fill="#EB6329"/>
</svg>
