<svg width="22" height="22" viewBox="0 0 22 22" fill="none" xmlns="http://www.w3.org/2000/svg">
<path d="M17.625 19.375C17.525 19.375 17.4 19.35 17.325 19.275L10.15 13.8C10.05 13.725 9.975 13.6 9.95 13.45C9.925 13.325 9.975 13.175 10.075 13.075L14.4 8.1L6.95 12C6.825 12.075 6.675 12.075 6.55 12.025L1.575 10.325C1.375 10.25 1.25 10.075 1.25 9.85C1.25 9.65 1.375 9.45 1.575 9.375L20.25 2.525C20.425 2.475 20.6 2.5 20.75 2.6C20.875 2.725 20.95 2.9 20.925 3.075L18.1 18.975C18.075 19.15 17.95 19.3 17.8 19.35C17.725 19.375 17.675 19.375 17.625 19.375ZM11.175 13.35L17.275 18L19.825 3.775L3.275 9.825L6.7 11L16.275 6C16.5 5.9 16.75 5.95 16.9 6.125C17.05 6.325 17.05 6.575 16.875 6.775L11.175 13.35Z" fill="white"/>
<path d="M9.07593 18.675C9.02593 18.675 8.97592 18.675 8.92592 18.65C8.77592 18.5999 8.65093 18.5 8.60093 18.35L5.97593 11.625C5.87593 11.375 6.00093 11.075 6.25093 10.975C6.50093 10.875 6.80093 11 6.90093 11.25L9.30092 17.35L12.5259 14.95C12.7509 14.775 13.0509 14.825 13.2259 15.05C13.4009 15.275 13.3509 15.575 13.1259 15.75L9.37593 18.55C9.27593 18.65 9.17593 18.675 9.07593 18.675Z" fill="white"/>
<path d="M9.07588 18.675C9.02588 18.675 8.97588 18.675 8.92588 18.65C8.65088 18.575 8.50088 18.3 8.57588 18.025L9.95088 13.275C10.0259 13 10.3009 12.85 10.5759 12.925C10.8509 13 11.0009 13.275 10.9259 13.55L9.55088 18.3C9.47588 18.525 9.27588 18.675 9.07588 18.675Z" fill="white"/>
</svg>
