<svg width="22" height="22" viewBox="0 0 22 22" fill="none" xmlns="http://www.w3.org/2000/svg">
<path d="M10.875 20.175C9.2 20.175 7.55 19.7 6.125 18.825L2.675 19.775C2.5 19.825 2.325 19.775 2.2 19.65C2.075 19.525 2.025 19.325 2.075 19.175L3.05 15.7C2.2 14.275 1.75 12.65 1.75 10.975C1.75 5.9 5.85 1.75 10.875 1.75C15.925 1.75 20 5.875 20 10.975C20.025 16.025 15.925 20.175 10.875 20.175ZM6.225 17.775C6.325 17.775 6.425 17.8 6.5 17.85C7.8 18.7 9.325 19.15 10.9 19.15C15.375 19.15 19.025 15.475 19.025 10.925C19.025 6.375 15.375 2.75 10.875 2.75C6.4 2.75 2.75 6.425 2.75 10.95C2.75 12.5 3.175 14.025 4 15.325C4.075 15.45 4.1 15.6 4.05 15.725L3.275 18.575L6.1 17.8C6.125 17.8 6.175 17.775 6.225 17.775Z" fill="white"/>
<path d="M12.725 15.975C12.625 15.975 12.525 15.975 12.425 15.975C11.35 15.9 9.67502 15.45 7.90002 13.725C6.37502 12.275 5.97502 10.875 5.77502 9.85005C5.45002 8.07505 6.80002 6.37505 6.87502 6.30005C7.05002 6.05005 7.37502 5.92505 7.75002 5.92505C8.15002 5.92505 8.57501 6.07505 8.85001 6.32505L9.97501 7.40005C10.2 7.62505 10.325 7.92505 10.3 8.25005C10.275 8.55005 10.125 8.82505 9.90002 9.00005L9.22501 9.67505C9.25001 9.95005 9.37502 10.625 10.25 11.5C11.075 12.35 11.825 12.575 12.2 12.625L12.725 11.925C12.925 11.65 13.25 11.475 13.6 11.475C13.875 11.475 14.125 11.575 14.325 11.75L15.55 12.9C15.775 13.125 15.925 13.425 15.925 13.75C15.925 14.05 15.8 14.325 15.6 14.55C15.35 14.85 14.525 15.975 12.725 15.975ZM7.62502 6.92505C7.50002 7.07505 6.50002 8.42505 6.75002 9.65005C6.92502 10.55 7.27501 11.725 8.60001 13C10.15 14.5 11.6 14.9 12.5 14.975C14.1 15.075 14.7 14.05 14.725 14C14.75 13.95 14.8 13.9 14.825 13.875C14.875 13.825 14.875 13.775 14.875 13.75C14.875 13.725 14.875 13.675 14.825 13.625L13.6 12.475C13.575 12.45 13.525 12.425 13.475 12.5L12.775 13.45C12.675 13.575 12.55 13.65 12.4 13.65C12.4 13.65 12.375 13.65 12.35 13.65C12.1 13.65 10.825 13.575 9.47501 12.2C8.00001 10.7 8.17501 9.52505 8.20001 9.37505C8.22501 9.27505 8.27501 9.17505 8.32501 9.10005L9.15002 8.25005C9.17502 8.22505 9.20001 8.20005 9.22501 8.20005C9.25001 8.20005 9.25002 8.17505 9.25002 8.15005C9.25002 8.12505 9.25001 8.12505 9.22501 8.10005L8.10001 7.02505C8.05001 6.97505 7.87501 6.90005 7.70001 6.90005C7.67501 6.92505 7.65002 6.92505 7.62502 6.92505Z" fill="white"/>
</svg>
