<svg width="174" height="12" viewBox="0 0 174 12" fill="none" xmlns="http://www.w3.org/2000/svg">
<path d="M10.696 6.1C10.696 7.5 10.2013 8.69467 9.212 9.684C8.22267 10.6733 7.028 11.168 5.628 11.168C4.228 11.168 3.03333 10.6733 2.044 9.684C1.05467 8.69467 0.56 7.5 0.56 6.1C0.56 4.7 1.05467 3.50533 2.044 2.516C3.03333 1.52667 4.228 1.032 5.628 1.032C7.028 1.032 8.22267 1.52667 9.212 2.516C10.2013 3.50533 10.696 4.7 10.696 6.1ZM0.98 6.1C0.98 7.40667 1.43267 8.51267 2.338 9.418C3.24333 10.3233 4.34 10.776 5.628 10.776C6.90667 10.776 7.99867 10.3233 8.904 9.418C9.81867 8.50333 10.276 7.39733 10.276 6.1C10.276 4.812 9.81867 3.71067 8.904 2.796C7.98933 1.88133 6.89733 1.424 5.628 1.424C4.34933 1.424 3.25267 1.88133 2.338 2.796C1.43267 3.70133 0.98 4.80267 0.98 6.1ZM5.67 8.788C4.90467 8.788 4.26067 8.52667 3.738 8.004C3.21533 7.48133 2.954 6.84667 2.954 6.1C2.954 5.35333 3.21533 4.71867 3.738 4.196C4.26067 3.67333 4.90467 3.412 5.67 3.412C6.16467 3.412 6.61267 3.52867 7.014 3.762C7.42467 3.99533 7.742 4.31267 7.966 4.714L7.196 5.162C7.06533 4.882 6.86 4.66733 6.58 4.518C6.30933 4.35933 6.006 4.28 5.67 4.28C5.12867 4.28 4.69 4.462 4.354 4.826C4.02733 5.18067 3.864 5.60533 3.864 6.1C3.864 6.58533 4.02733 7.01467 4.354 7.388C4.69 7.74267 5.12867 7.92 5.67 7.92C6.01533 7.92 6.32333 7.84067 6.594 7.682C6.874 7.52333 7.07933 7.304 7.21 7.024L7.98 7.486C7.756 7.88733 7.43867 8.20467 7.028 8.438C6.61733 8.67133 6.16467 8.788 5.67 8.788ZM23.978 9.698C22.998 10.678 21.7986 11.168 20.38 11.168C18.9613 11.168 17.762 10.678 16.782 9.698C15.802 8.69933 15.312 7.5 15.312 6.1C15.312 4.69067 15.802 3.496 16.782 2.516C17.762 1.52667 18.9613 1.032 20.38 1.032C21.7986 1.032 22.998 1.52667 23.978 2.516C24.958 3.496 25.448 4.69067 25.448 6.1C25.448 7.5 24.958 8.69933 23.978 9.698ZM16.292 6.1C16.292 7.25733 16.684 8.23267 17.468 9.026C18.252 9.81933 19.2226 10.216 20.38 10.216C21.5373 10.216 22.508 9.81933 23.292 9.026C24.076 8.23267 24.468 7.25733 24.468 6.1C24.468 4.952 24.076 3.98133 23.292 3.188C22.508 2.38533 21.5373 1.984 20.38 1.984C19.2226 1.984 18.252 2.38533 17.468 3.188C16.684 3.98133 16.292 4.952 16.292 6.1ZM35.2299 9.698C34.2499 10.678 33.0506 11.168 31.6319 11.168C30.2132 11.168 29.0139 10.678 28.0339 9.698C27.0539 8.69933 26.5639 7.5 26.5639 6.1C26.5639 4.69067 27.0539 3.496 28.0339 2.516C29.0139 1.52667 30.2132 1.032 31.6319 1.032C33.0506 1.032 34.2499 1.52667 35.2299 2.516C36.2099 3.496 36.6999 4.69067 36.6999 6.1C36.6999 7.5 36.2099 8.69933 35.2299 9.698ZM27.5439 6.1C27.5439 7.25733 27.9359 8.23267 28.7199 9.026C29.5039 9.81933 30.4746 10.216 31.6319 10.216C32.7892 10.216 33.7599 9.81933 34.5439 9.026C35.3279 8.23267 35.7199 7.25733 35.7199 6.1C35.7199 4.952 35.3279 3.98133 34.5439 3.188C33.7599 2.38533 32.7892 1.984 31.6319 1.984C30.4746 1.984 29.5039 2.38533 28.7199 3.188C27.9359 3.98133 27.5439 4.952 27.5439 6.1ZM46.4819 9.698C45.5019 10.678 44.3025 11.168 42.8839 11.168C41.4652 11.168 40.2659 10.678 39.2859 9.698C38.3059 8.69933 37.8159 7.5 37.8159 6.1C37.8159 4.69067 38.3059 3.496 39.2859 2.516C40.2659 1.52667 41.4652 1.032 42.8839 1.032C44.3025 1.032 45.5019 1.52667 46.4819 2.516C47.4619 3.496 47.9519 4.69067 47.9519 6.1C47.9519 7.5 47.4619 8.69933 46.4819 9.698ZM38.7959 6.1C38.7959 7.25733 39.1879 8.23267 39.9719 9.026C40.7559 9.81933 41.7265 10.216 42.8839 10.216C44.0412 10.216 45.0119 9.81933 45.7959 9.026C46.5799 8.23267 46.9719 7.25733 46.9719 6.1C46.9719 4.952 46.5799 3.98133 45.7959 3.188C45.0119 2.38533 44.0412 1.984 42.8839 1.984C41.7265 1.984 40.7559 2.38533 39.9719 3.188C39.1879 3.98133 38.7959 4.952 38.7959 6.1ZM53.9678 4.35H52.8478L53.6878 1.2H54.5278L53.9678 4.35ZM55.9278 4.35H54.8078L55.6478 1.2H56.4878L55.9278 4.35ZM61.1023 11.168C60.2063 11.168 59.4363 10.958 58.7923 10.538C58.1577 10.1087 57.7143 9.52067 57.4623 8.774L58.3023 8.284C58.4797 8.9 58.8063 9.376 59.2823 9.712C59.7677 10.048 60.379 10.216 61.1163 10.216C61.835 10.216 62.3997 10.0573 62.8103 9.74C63.221 9.42267 63.4263 8.99333 63.4263 8.452C63.4263 7.93867 63.2397 7.55133 62.8663 7.29C62.5023 7.02867 61.8863 6.758 61.0183 6.478C59.9823 6.13267 59.3103 5.862 59.0023 5.666C58.2557 5.218 57.8823 4.56933 57.8823 3.72C57.8823 2.88933 58.1717 2.236 58.7503 1.76C59.3197 1.27467 60.0337 1.032 60.8923 1.032C61.6297 1.032 62.283 1.228 62.8523 1.62C63.4217 2.00267 63.8463 2.51133 64.1263 3.146L63.3003 3.608C62.8523 2.52533 62.0497 1.984 60.8923 1.984C60.2763 1.984 59.7817 2.138 59.4083 2.446C59.0443 2.74467 58.8623 3.15533 58.8623 3.678C58.8623 4.17267 59.0303 4.53667 59.3663 4.77C59.7117 5.01267 60.267 5.26 61.0323 5.512L61.7883 5.778C61.947 5.82467 62.171 5.90867 62.4603 6.03C62.7777 6.15133 62.997 6.254 63.1183 6.338C63.613 6.63667 63.9257 6.912 64.0563 7.164C64.2897 7.53733 64.4063 7.95733 64.4063 8.424C64.4063 9.25467 64.103 9.922 63.4963 10.426C62.8897 10.9207 62.0917 11.168 61.1023 11.168ZM69.4537 4V4.896H67.4377V9.138C67.4377 9.52067 67.5123 9.796 67.6617 9.964C67.811 10.1227 68.035 10.2067 68.3337 10.216C68.6323 10.216 69.0057 10.2067 69.4537 10.188V11C68.455 11.1493 67.713 11.0793 67.2277 10.79C66.7517 10.4913 66.5137 9.94067 66.5137 9.138V4.896H65.0437V4H66.5137V2.32L67.4377 2.04V4H69.4537ZM73.8038 3.832C74.8492 3.832 75.6845 4.20067 76.3098 4.938C76.9538 5.666 77.2758 6.52933 77.2758 7.528C77.2758 7.57467 77.2665 7.71933 77.2478 7.962H71.1018C71.1952 8.662 71.4938 9.222 71.9978 9.642C72.5018 10.062 73.1318 10.272 73.8878 10.272C74.9518 10.272 75.7032 9.87533 76.1418 9.082L76.9538 9.558C76.6458 10.062 76.2212 10.4587 75.6798 10.748C75.1478 11.028 74.5458 11.168 73.8738 11.168C72.7725 11.168 71.8765 10.8227 71.1858 10.132C70.4952 9.44133 70.1498 8.564 70.1498 7.5C70.1498 6.44533 70.4905 5.57267 71.1718 4.882C71.8532 4.182 72.7305 3.832 73.8038 3.832ZM73.8038 4.728C73.0758 4.728 72.4645 4.94267 71.9698 5.372C71.4845 5.80133 71.1952 6.366 71.1018 7.066H76.3238C76.2212 6.31933 75.9365 5.74533 75.4698 5.344C74.9845 4.93333 74.4292 4.728 73.8038 4.728ZM81.9796 3.832C83.025 3.832 83.8603 4.20067 84.4856 4.938C85.1296 5.666 85.4516 6.52933 85.4516 7.528C85.4516 7.57467 85.4423 7.71933 85.4236 7.962H79.2776C79.371 8.662 79.6696 9.222 80.1736 9.642C80.6776 10.062 81.3076 10.272 82.0636 10.272C83.1276 10.272 83.879 9.87533 84.3176 9.082L85.1296 9.558C84.8216 10.062 84.397 10.4587 83.8556 10.748C83.3236 11.028 82.7216 11.168 82.0496 11.168C80.9483 11.168 80.0523 10.8227 79.3616 10.132C78.671 9.44133 78.3256 8.564 78.3256 7.5C78.3256 6.44533 78.6663 5.57267 79.3476 4.882C80.029 4.182 80.9063 3.832 81.9796 3.832ZM81.9796 4.728C81.2516 4.728 80.6403 4.94267 80.1456 5.372C79.6603 5.80133 79.371 6.366 79.2776 7.066H84.4996C84.397 6.31933 84.1123 5.74533 83.6456 5.344C83.1603 4.93333 82.605 4.728 81.9796 4.728ZM87.8454 11H86.9214V0.78H87.8454V11ZM97.6882 1.2H98.9062V11H97.9262V2.684L94.4962 8.424H94.3562L90.9262 2.684V11H89.9462V1.2H91.1642L94.4262 6.66L97.6882 1.2ZM104.237 3.832C105.283 3.832 106.118 4.20067 106.743 4.938C107.387 5.666 107.709 6.52933 107.709 7.528C107.709 7.57467 107.7 7.71933 107.681 7.962H101.535C101.629 8.662 101.927 9.222 102.431 9.642C102.935 10.062 103.565 10.272 104.321 10.272C105.385 10.272 106.137 9.87533 106.575 9.082L107.387 9.558C107.079 10.062 106.655 10.4587 106.113 10.748C105.581 11.028 104.979 11.168 104.307 11.168C103.206 11.168 102.31 10.8227 101.619 10.132C100.929 9.44133 100.583 8.564 100.583 7.5C100.583 6.44533 100.924 5.57267 101.605 4.882C102.287 4.182 103.164 3.832 104.237 3.832ZM104.237 4.728C103.509 4.728 102.898 4.94267 102.403 5.372C101.918 5.80133 101.629 6.366 101.535 7.066H106.757C106.655 6.31933 106.37 5.74533 105.903 5.344C105.418 4.93333 104.863 4.728 104.237 4.728ZM112.684 4V4.896H110.668V9.138C110.668 9.52067 110.743 9.796 110.892 9.964C111.041 10.1227 111.265 10.2067 111.564 10.216C111.863 10.216 112.236 10.2067 112.684 10.188V11C111.685 11.1493 110.943 11.0793 110.458 10.79C109.982 10.4913 109.744 9.94067 109.744 9.138V4.896H108.274V4H109.744V2.32L110.668 2.04V4H112.684ZM115.148 4V5.162C115.577 4.31267 116.315 3.888 117.36 3.888V4.784C116.688 4.784 116.151 4.98 115.75 5.372C115.349 5.75467 115.148 6.33333 115.148 7.108V11H114.224V4H115.148ZM119.76 1.844C119.76 2.03067 119.695 2.18933 119.564 2.32C119.434 2.45067 119.275 2.516 119.088 2.516C118.902 2.516 118.743 2.45067 118.612 2.32C118.482 2.18933 118.416 2.03067 118.416 1.844C118.416 1.65733 118.482 1.49867 118.612 1.368C118.743 1.23733 118.902 1.172 119.088 1.172C119.275 1.172 119.434 1.23733 119.564 1.368C119.695 1.49867 119.76 1.65733 119.76 1.844ZM119.55 11H118.626V4H119.55V11ZM124.661 7.374L127.391 11H126.285L124.101 8.116L121.917 11H120.811L123.555 7.374L120.993 4H122.099L124.101 6.646L126.103 4H127.209L124.661 7.374ZM131.798 7.374L134.528 11H133.422L131.238 8.116L129.054 11H127.948L130.692 7.374L128.13 4H129.236L131.238 6.646L133.24 4H134.346L131.798 7.374ZM136.205 1.2H137.325L136.485 4.35H135.645L136.205 1.2ZM138.165 1.2H139.285L138.445 4.35H137.605L138.165 1.2ZM150.413 11H144.183V10.118L147.711 6.562C148.719 5.554 149.223 4.69067 149.223 3.972C149.223 3.36533 149.032 2.88467 148.649 2.53C148.276 2.166 147.809 1.984 147.249 1.984C146.25 1.984 145.518 2.446 145.051 3.37L144.225 2.88C144.524 2.28267 144.939 1.82533 145.471 1.508C146.003 1.19067 146.596 1.032 147.249 1.032C148.033 1.032 148.719 1.298 149.307 1.83C149.904 2.34333 150.203 3.05733 150.203 3.972C150.203 4.51333 150.054 5.04533 149.755 5.568C149.456 6.08133 148.999 6.646 148.383 7.262L145.583 10.048H150.413V11ZM157.982 9.796C157.338 10.7107 156.428 11.168 155.252 11.168C154.085 11.168 153.17 10.7107 152.508 9.796C151.864 8.872 151.542 7.64 151.542 6.1C151.542 4.55067 151.864 3.32333 152.508 2.418C153.17 1.494 154.085 1.032 155.252 1.032C156.428 1.032 157.338 1.494 157.982 2.418C158.635 3.32333 158.962 4.55067 158.962 6.1C158.962 7.64933 158.635 8.88133 157.982 9.796ZM153.236 9.138C153.73 9.85667 154.402 10.216 155.252 10.216C156.11 10.216 156.778 9.85667 157.254 9.138C157.739 8.42867 157.982 7.416 157.982 6.1C157.982 4.784 157.739 3.77133 157.254 3.062C156.778 2.34333 156.11 1.984 155.252 1.984C154.402 1.984 153.73 2.34333 153.236 3.062C152.76 3.78067 152.522 4.79333 152.522 6.1C152.522 7.40667 152.76 8.41933 153.236 9.138ZM166.313 11H160.083V10.118L163.611 6.562C164.619 5.554 165.123 4.69067 165.123 3.972C165.123 3.36533 164.932 2.88467 164.549 2.53C164.176 2.166 163.709 1.984 163.149 1.984C162.151 1.984 161.418 2.446 160.951 3.37L160.125 2.88C160.424 2.28267 160.839 1.82533 161.371 1.508C161.903 1.19067 162.496 1.032 163.149 1.032C163.933 1.032 164.619 1.298 165.207 1.83C165.805 2.34333 166.103 3.05733 166.103 3.972C166.103 4.51333 165.954 5.04533 165.655 5.568C165.357 6.08133 164.899 6.646 164.283 7.262L161.483 10.048H166.313V11ZM173.182 2.124L170.9 5.274C171.675 5.36733 172.319 5.67067 172.832 6.184C173.346 6.66933 173.602 7.32733 173.602 8.158C173.602 9.082 173.28 9.81933 172.636 10.37C172.011 10.902 171.236 11.168 170.312 11.168C169.575 11.168 168.922 11 168.352 10.664C167.783 10.3187 167.386 9.838 167.162 9.222L167.974 8.746C168.133 9.222 168.413 9.586 168.814 9.838C169.225 10.09 169.724 10.216 170.312 10.216C171.003 10.216 171.558 10.034 171.978 9.67C172.408 9.29667 172.622 8.79267 172.622 8.158C172.622 7.52333 172.408 7.024 171.978 6.66C171.558 6.28667 171.003 6.1 170.312 6.1V6.086L170.298 6.1H170.032L169.612 5.456L172.048 2.124H167.442V1.2H173.182V2.124Z" fill="#ABABAB"/>
</svg>
