<svg width="22" height="22" viewBox="0 0 22 22" fill="none" xmlns="http://www.w3.org/2000/svg">
<path d="M10.8469 21C10.7063 21 10.5375 20.944 10.4531 20.8319C10.1438 20.5238 3 13.0448 3 8.84314C3 4.52941 6.51562 1 10.875 1C15.2344 1 18.75 4.5014 18.75 8.84314C18.75 13.0448 11.6062 20.5238 11.2969 20.8319C11.1562 20.944 10.9875 21 10.8469 21ZM10.8469 2.14846C7.13438 2.14846 4.09688 5.14566 4.09688 8.87115C4.09688 10.3838 5.30626 12.7927 7.61251 15.8179C8.87813 17.4986 10.1719 18.9552 10.8187 19.6274C11.4656 18.9272 12.7594 17.4986 14.025 15.8179C16.3313 12.7927 17.5406 10.3838 17.5406 8.87115C17.5688 5.14566 14.5594 2.14846 10.8469 2.14846Z" fill="#EB6329"/>
<path d="M11.0149 12.7086C8.79298 12.7086 6.96484 10.9159 6.96484 8.67497C6.96484 6.43407 8.76485 4.64136 11.0149 4.64136C13.2649 4.64136 15.0649 6.43407 15.0649 8.67497C15.0649 10.9159 13.2367 12.7086 11.0149 12.7086ZM11.0149 5.78982C9.41173 5.78982 8.08984 7.07833 8.08984 8.70298C8.08984 10.2996 9.3836 11.6161 11.0149 11.6161C12.618 11.6161 13.9399 10.3276 13.9399 8.70298C13.9399 7.07833 12.618 5.78982 11.0149 5.78982Z" fill="#EB6329"/>
</svg>
