<svg width="202" height="40" viewBox="0 0 202 40" fill="none" xmlns="http://www.w3.org/2000/svg">
<g clip-path="url(#clip0_44_13)">
<path fill-rule="evenodd" clip-rule="evenodd" d="M70.2573 31.7907H74.2459V13.4358L70.2573 9.50684V31.7907ZM9.1187 32.3771C13.7621 32.3771 17.9889 29.445 17.9889 25.5747C17.9889 19.6518 11.0237 19.0654 7.3923 18.0685C6.02308 17.7167 5.01104 16.7784 5.01104 15.8401C5.01104 14.55 6.55886 13.4358 8.88058 13.4358C11.3809 13.4358 12.6906 14.6087 12.8096 15.9574H17.0364C16.8578 12.2044 13.2859 9.68276 8.94011 9.68276C4.3562 9.68276 0.843853 12.6735 0.843853 15.9574C0.843853 18.9481 3.46323 21.0006 6.32073 21.8802C8.1662 22.408 10.0117 22.6426 11.5595 23.1703C12.9287 23.6395 14.0003 24.3432 14.0003 25.516C14.0003 26.9234 12.0953 28.5654 8.88058 28.5654C6.02308 28.5654 3.76089 26.8648 3.93948 24.8123H0.010415C-0.22771 28.8586 3.64182 32.3771 9.1187 32.3771ZM25.7875 9.50684H21.7989V15.5469H18.227V18.7722H21.8584V27.8617L25.847 31.7907V18.7722H29.4784V15.5469H25.847V9.50684H25.7875ZM58.8869 32.2598C62.6373 32.2598 66.3283 29.8555 67.3998 26.2784H63.1731C62.4587 27.6858 60.7919 28.9172 58.8869 28.9172C56.327 28.9172 54.5411 26.9821 54.0648 24.871H67.757C68.5309 20.5315 65.0781 15.0778 58.8869 15.0778C53.8267 15.0778 49.9572 19.0068 49.9572 23.6395C49.9572 28.4481 53.8862 32.2598 58.8869 32.2598ZM54.303 21.6457C55.0173 19.9451 56.6247 18.4204 58.8869 18.4204C61.0895 18.4204 62.935 20.0037 63.4708 21.6457H54.303ZM39.3011 32.2598C43.0515 32.2598 46.7425 29.8555 47.814 26.2784H43.5873C42.8729 27.6858 41.2061 28.9172 39.3011 28.9172C36.7412 28.9172 34.9553 26.9821 34.479 24.871H48.1712C48.9451 20.5315 45.4923 15.0778 39.3011 15.0778C34.2409 15.0778 30.3714 19.0068 30.3714 23.6395C30.3714 28.4481 34.3004 32.2598 39.3011 32.2598ZM34.7172 21.6457C35.4315 19.9451 37.0389 18.4204 39.3011 18.4204C41.5037 18.4204 43.3492 20.0037 43.885 21.6457H34.7172Z" fill="#EB6329"/>
<path fill-rule="evenodd" clip-rule="evenodd" d="M144.97 13.4358H148.958V9.50684H144.97V13.4358ZM94.6064 18.9481L88.4152 25.0469L82.1644 18.8895V31.8493H78.1758V9.56548L88.4152 19.5932L98.595 9.56548V31.8493L94.6064 27.9203V18.9481ZM127.289 9.50684H123.301V15.5469H119.669V18.7722H123.301V27.8617L127.289 31.7907V18.7722H130.921V15.5469H127.289V9.50684ZM110.323 32.2598C105.322 32.2598 101.393 28.4481 101.393 23.6981C101.393 19.0654 105.322 15.1364 110.323 15.1364C116.514 15.1364 119.967 20.5901 119.193 24.9296H105.501C105.917 26.9821 107.763 28.9759 110.323 28.9759C112.287 28.9759 113.895 27.803 114.609 26.337H118.836C117.764 29.8555 114.133 32.2598 110.323 32.2598ZM105.798 21.6457H114.907C114.371 20.0623 112.525 18.4204 110.323 18.4204C108.12 18.4204 106.453 19.9451 105.798 21.6457ZM133.004 31.7907H136.993V22.8771C136.993 19.9451 140.148 18.0099 142.708 19.0068V15.4296C140.207 14.7846 138.005 15.9574 136.993 17.658V15.5469H133.004V31.7907ZM144.97 31.7907H148.958V19.4759L144.97 15.5469V31.7907Z" fill="#464646"/>
<path fill-rule="evenodd" clip-rule="evenodd" d="M196.226 29.9728L188.309 22.1735L186.523 23.9328L201.941 39.1796L201.405 39.7074L185.987 24.4605L178.486 31.8494H173.069L165.568 24.4605L158.067 31.8494H152.352L162.651 21.7044L142.053 1.29706L142.589 0.769287L153.364 11.3834H156.936L149.077 3.70137L149.613 3.1736L165.568 18.8309L171.58 12.9081L172.057 13.3772L166.044 19.3001L167.889 21.118L175.271 13.8464L172.83 11.3834H177.414L169.556 3.64273L170.032 3.1736L178.069 11.0902L186.106 3.1736L186.642 3.70137L178.605 11.618L186.046 18.9482L201.525 3.70137L202.001 4.22915L186.523 19.476L188.309 21.2352L196.167 13.4945L196.702 14.0223L188.844 21.8216L196.762 29.621L196.226 29.9728ZM166.044 23.9328L173.426 31.2043L183.129 21.6457L175.688 14.3155C173.247 16.7198 170.747 19.1828 168.306 21.6457L172.89 26.1611L172.414 26.6303L167.83 22.1149L166.044 23.9328Z" fill="#464646"/>
</g>
<defs>
<clipPath id="clip0_44_13">
<rect width="202" height="40" fill="white"/>
</clipPath>
</defs>
</svg>
