<svg width="22" height="22" viewBox="0 0 22 22" fill="none" xmlns="http://www.w3.org/2000/svg">
<path d="M11.2625 18.85C11.2375 18.85 11.2375 18.85 11.2625 18.85C10.6625 18.825 10.0875 18.825 9.5125 18.8C8.0625 18.75 6.5375 18.7 5.0625 18.65C4.3375 18.625 3.6375 18.525 2.9875 18.425C1.5875 18.225 0.5875 17.225 0.3375 15.8C0.1625 14.775 0.0625 13.85 0.0375 12.975C-0.0125 11.6 -0.0125 10.275 0.0375 9.025C0.0625 8.075 0.1625 7.075 0.3625 6.075C0.6125 4.7 1.6875 3.725 3.1625 3.55C5.3875 3.275 7.6375 3.25 9.5375 3.25C11.4875 3.25 13.5375 3.275 16.0375 3.35C16.8375 3.375 17.7125 3.45 18.6875 3.6C20.2125 3.825 21.1875 4.775 21.4625 6.325C21.7375 7.9 21.8375 9.625 21.7875 11.725C21.7625 12.725 21.6875 13.725 21.5875 14.825C21.5375 15.275 21.4625 15.75 21.3375 16.2C20.9875 17.45 19.9625 18.3 18.5625 18.475C16.5125 18.725 14.4375 18.75 12.4375 18.775H12.0375C11.9375 18.775 11.8625 18.775 11.7625 18.775H11.5125C11.4125 18.825 11.3375 18.85 11.2625 18.85ZM9.5375 4.25C7.6625 4.25 5.4625 4.275 3.2875 4.55C2.2375 4.675 1.5375 5.3 1.3375 6.275C1.1625 7.225 1.0375 8.15 1.0125 9.075C0.9625 10.3 0.9625 11.6 1.0125 12.95C1.0375 13.775 1.1375 14.65 1.3125 15.65C1.4875 16.625 2.1625 17.3 3.1125 17.45C3.7375 17.55 4.4125 17.625 5.0875 17.65C6.5625 17.7 8.0875 17.75 9.5375 17.8C10.0375 17.825 10.5375 17.825 11.0625 17.85C11.1375 17.825 11.1875 17.8 11.2625 17.8H11.7375C11.8125 17.8 11.9125 17.8 11.9875 17.8H12.3875C14.3625 17.775 16.4125 17.75 18.4125 17.5C19.4125 17.375 20.1125 16.825 20.3375 15.975C20.4375 15.575 20.5125 15.175 20.5625 14.775C20.6625 13.7 20.7375 12.725 20.7625 11.725C20.8125 9.675 20.7125 8.025 20.4375 6.525C20.2375 5.4 19.6125 4.775 18.5125 4.625C17.5875 4.5 16.7625 4.4 15.9875 4.375C13.5125 4.275 11.4625 4.25 9.5375 4.25ZM8.7875 14.625C8.7125 14.625 8.6125 14.6 8.5375 14.55C8.3875 14.45 8.2875 14.3 8.2875 14.125V7.9C8.2875 7.725 8.3875 7.55 8.5375 7.475C8.6875 7.4 8.8875 7.375 9.0375 7.475L14.4375 10.575C14.5875 10.675 14.6875 10.825 14.6875 11C14.6875 11.175 14.5875 11.35 14.4375 11.425L9.0375 14.55C8.9625 14.6 8.8875 14.625 8.7875 14.625ZM9.2875 8.775V13.275L13.1875 11.025L9.2875 8.775Z" fill="white"/>
</svg>
